<?xml version="1.0" encoding="UTF-8" standalone="no"?>
<!-- Generated by Pixelmator Pro 3.2.3 -->

<svg
   width="24"
   height="24"
   viewBox="0 0 24 24"
   version="1.1"
   id="svg1"
   sodipodi:docname="bx-user2.svg"
   inkscape:version="1.3.2 (091e20e, 2023-11-25)"
   xmlns:inkscape="http://www.inkscape.org/namespaces/inkscape"
   xmlns:sodipodi="http://sodipodi.sourceforge.net/DTD/sodipodi-0.dtd"
   xmlns="http://www.w3.org/2000/svg"
   xmlns:svg="http://www.w3.org/2000/svg">
  <defs
     id="defs1" />
  <sodipodi:namedview
     id="namedview1"
     pagecolor="#ffffff"
     bordercolor="#000000"
     borderopacity="0.25"
     inkscape:showpageshadow="2"
     inkscape:pageopacity="0.0"
     inkscape:pagecheckerboard="0"
     inkscape:deskcolor="#d1d1d1"
     inkscape:zoom="9.8333333"
     inkscape:cx="12"
     inkscape:cy="12"
     inkscape:window-width="1312"
     inkscape:window-height="857"
     inkscape:window-x="0"
     inkscape:window-y="38"
     inkscape:window-maximized="0"
     inkscape:current-layer="svg1" />
  <path
     id="Path"
     fill="#000000"
     stroke="none"
     d="M 12 2 C 9.238576 2 7 4.238577 7 7 C 7 9.761424 9.238576 12 12 12 C 14.761424 12 17 9.761424 17 7 C 17 4.238577 14.761424 2 12 2 Z M 12 10 C 10.343145 10 9 8.656855 9 7 C 9 5.343145 10.343145 4 12 4 C 13.656855 4 15 5.343145 15 7 C 15 8.656855 13.656855 10 12 10 Z M 21 21 L 21 20 C 21 16.134007 17.865993 13 14 13 L 10 13 C 6.134007 13 3 16.134007 3 20 L 3 21 L 5 21 L 5 20 C 5 17.238577 7.238576 15 10 15 L 14 15 C 16.761423 15 19 17.238577 19 20 L 19 21 Z"
     style="fill:#f9f9f9" />
</svg>
